<svg width="24" height="24" viewBox="0 0 24 24" fill="none" xmlns="http://www.w3.org/2000/svg">
<path d="M17 14V14C17.9319 14 18.3978 14 18.7654 13.8478C19.2554 13.6448 19.6448 13.2554 19.8478 12.7654C20 12.3978 20 11.9319 20 11V8C20 6.11438 20 5.17157 19.4142 4.58579C18.8284 4 17.8856 4 16 4H13C12.0681 4 11.6022 4 11.2346 4.15224C10.7446 4.35523 10.3552 4.74458 10.1522 5.23463C10 5.60218 10 6.06812 10 7V7" stroke="#33363F" stroke-width="2"/>
<rect x="14" y="10" width="10" height="10" rx="2" transform="rotate(90 14 10)" stroke="#33363F" stroke-width="2"/>
</svg>
